# xmcd
#
# Track frame offsets:
#	182
#	17807
#	32692
#	45607
#	63747
#	80522
#	97005
#	111095
#	125705
#	144250
#	155102
#	168545
#	174662
#	185310
#	194997
#
# Disc length: 2690 seconds
#
# Revision: 3
# Processed by: cddbd v1.5.2PL0 Copyright (c) Steve Scherf et al.
# Submitted via: audiograbber 1.83.01
#
DISCID=dc0a800f
DTITLE=Various Artist - Mercury Country Christmas 1996
DYEAR=1996
DGENRE=Christmas
TTITLE0=Shania Twain - God Bless The Child
TTITLE1=Sammy Kershaw - Christmas Time 's A Comin'
TTITLE2=Sammy Kershaw - Please Come Home For Christmas
TTITLE3=Sammy Kershaw - Daddy STuff
TTITLE4=Toby Keith - Santa I'm Right Here
TTITLE5=Toby Keith - Hot Rod Sleigh
TTITLE6=Toby Keith - Blame It On The Mistletoe
TTITLE7=Kathy Mattea - Mary, Did You Know
TTITLE8=Kathy Mattea - There's A New Kid In Town
TTITLE9=Kathy Mattea - Somebody Talkin' About Jesus
TTITLE10=Soundtrack - You're Mean One, Mr Grinch
TTITLE11=Soundtrack - Trim Up The Tree
TTITLE12=The Statler Brothers - White Christmas
TTITLE13=Hank Williams - I Saw The Light
TTITLE14=Shania Twain  - God Bless The Child (album version)
EXTD=YEAR: 1996
EXTT0=
EXTT1=
EXTT2=
EXTT3=
EXTT4=
EXTT5=
EXTT6=
EXTT7=
EXTT8=
EXTT9=
EXTT10=
EXTT11=
EXTT12=
EXTT13=
EXTT14=
PLAYORDER=
